<?xml version="1.0" standalone="no"?>
<!DOCTYPE svg PUBLIC "-//W3C//DTD SVG 20010904//EN"
 "http://www.w3.org/TR/2001/REC-SVG-20010904/DTD/svg10.dtd">
<svg version="1.0" xmlns="http://www.w3.org/2000/svg"
 width="240.000000pt" height="226.000000pt" viewBox="0 0 240.000000 226.000000"
 preserveAspectRatio="xMidYMid meet">
<metadata>
Created by Docfx
</metadata>
<g transform="translate(0.000000,226.000000) scale(0.0100000,-0.0100000)"
fill="#000000" stroke="none">
<path d="M1026 2240 c-285 -49 -504 -157 -687 -340 -179 -178 -287 -394 -319
-638 -34 -248 34 -527 181 -743 69 -102 203 -234 311 -306 481 -320 1113 -270
1536 122 134 124 264 340 312 520 31 114 38 347 16 469 -87 461 -473 826 -966
911 -147 25 -259 27 -384 5z m475 -43 c420 -110 738 -415 838 -802 175 -678
-340 -1333 -1079 -1372 -556 -29 -1065 331 -1196 845 -91 355 9 727 270 1000
167 174 373 286 634 343 131 28 399 21 533 -14z"/>
<path d="M729 1846 c-95 -25 -165 -82 -212 -170 -17 -32 -22 -58 -22 -121 0
-181 91 -270 405 -395 270 -107 344 -172 344 -300 0 -140 -127 -243 -299 -244
-62 0 -78 4 -135 35 -112 61 -210 209 -262 397 -20 72 -26 82 -45 82 l-23 0 0
-261 c0 -259 0 -260 21 -257 15 2 27 18 40 52 27 72 31 74 86 28 93 -78 195
-112 331 -112 l83 0 -15 -22 c-33 -47 -11 -121 47 -157 65 -40 150 -54 287
-48 69 3 148 12 175 21 67 21 141 71 170 115 41 62 48 137 54 644 l6 479 23
18 c13 11 48 21 87 25 45 5 65 12 65 21 0 12 -56 14 -335 14 l-335 0 0 75 c0
67 -2 75 -19 75 -12 0 -23 -11 -30 -32 -6 -18 -18 -43 -27 -55 l-15 -24 -42
34 c-65 52 -92 66 -154 82 -68 18 -190 18 -254 1z m231 -36 c19 -5 60 -24 90
-42 46 -28 60 -44 88 -98 18 -36 45 -110 61 -165 24 -82 32 -101 49 -103 21
-3 21 1 24 124 l3 126 123 -1 c68 -1 134 -6 147 -11 42 -16 45 -47 45 -534 -1
-615 -7 -650 -128 -697 -76 -29 -221 -33 -269 -6 -35 19 -41 39 -22 81 14 31
-3 81 -34 97 -17 10 -12 15 50 45 120 58 188 152 200 277 11 117 -41 233 -135
302 -26 19 -128 69 -227 111 -201 85 -270 120 -332 170 -110 89 -89 250 40
310 57 26 160 33 227 14z"/>
</g>
</svg>
